# xmcd
#
# Track frame offsets:
#	150
#	11694
#	30674
#	45311
#	63556
#	78080
#	95645
#	107063
#	126121
#	146854
#	164724
#	181826
#	195119
#	211003
#	226287
#	240041
#	257012
#
# Disc length: 3641 seconds
#
# Revision: 1
# Processed by: cddbd v1.5.2PL0 Copyright (c) Steve Scherf et al.
# Submitted via: audiograbber 1.83.01
#
DISCID=d40e3711
DTITLE=Ronnie Milsap - CKC46
DYEAR=1900
DGENRE=Karaoke
TTITLE0=Daydreams About Night Things
TTITLE1=Smokey Mountain Rain
TTITLE2=(I'm A) Stand By My Woman Man
TTITLE3=What A Difference You've Made In My Life
TTITLE4=Don't You Know How Much I Love You
TTITLE5=She Keeps The Home Fires Burning
TTITLE6=Pure Love
TTITLE7=Stranger In My House
TTITLE8=In The Still Of The Night
TTITLE9=It's Already Taken
TTITLE10=I Wouldn't Have Missed It For The World
TTITLE11=Please Don't Tell Me How The Story Ends
TTITLE12=It Was Almost Like A Song
TTITLE13=Back On My Mind Again
TTITLE14=(I'd Be) A Legend In My Time
TTITLE15=Any Day Now
TTITLE16=(There's) No Gettin' Over Me
EXTD=
EXTT0=
EXTT1=
EXTT2=
EXTT3=
EXTT4=
EXTT5=
EXTT6=
EXTT7=
EXTT8=
EXTT9=
EXTT10=
EXTT11=
EXTT12=
EXTT13=
EXTT14=
EXTT15=
EXTT16=
PLAYORDER=
